# xmcd
#
# Track frame offsets:
#	150
#	20827
#	37587
#	57587
#	76929
#	96105
#	118020
#	138887
#	158107
#	185920
#
# Disc length: 2783 seconds
#
# Revision: 4
# Processed by: cddbd v1.5PL3 Copyright (c) Steve Scherf et al.
# Submitted via: CDex 1.50Beta5
#
DISCID=7f0add0a
DTITLE=近藤真彦 - THE ROCK BEST
DYEAR=1996
DGENRE=Pop
TTITLE0=スニーカーぶる〜す
TTITLE1=ブルージーンズメモリー
TTITLE2=ギンギラギンにさりげなく
TTITLE3=ハイティーン・ブギ
TTITLE4=真夏の一秒
TTITLE5=大将
TTITLE6=Baby Rose
TTITLE7=愚か者
TTITLE8=アンダルシアに憧れて
TTITLE9=ミッドナイト・シャッフル
EXTD=
EXTT0=
EXTT1=
EXTT2=
EXTT3=
EXTT4=
EXTT5=
EXTT6=
EXTT7=
EXTT8=
EXTT9=
PLAYORDER=
